<svg width="70" height="70" viewBox="0 0 70 70" fill="none" xmlns="http://www.w3.org/2000/svg">
<path fill-rule="evenodd" clip-rule="evenodd" d="M34.9999 41.1892L50.467 56.6563C51.2877 57.477 52.4009 57.9381 53.5616 57.9381C54.7223 57.9381 55.8354 57.477 56.6562 56.6563C57.4769 55.8355 57.938 54.7224 57.938 53.5617C57.938 52.401 57.4769 51.2878 56.6562 50.4671L41.1832 35L56.6532 19.5329C57.0594 19.1265 57.3816 18.6441 57.6014 18.1132C57.8211 17.5823 57.9342 17.0134 57.934 16.4388C57.9339 15.8642 57.8206 15.2953 57.6006 14.7645C57.3806 14.2337 57.0582 13.7514 56.6518 13.3452C56.2454 12.939 55.763 12.6169 55.2321 12.3971C54.7012 12.1773 54.1322 12.0643 53.5576 12.0644C52.983 12.0646 52.4141 12.1779 51.8833 12.3979C51.3525 12.6179 50.8703 12.9403 50.4641 13.3467L34.9999 28.8138L19.5328 13.3467C19.1294 12.9286 18.6468 12.5951 18.1132 12.3656C17.5795 12.136 17.0055 12.0151 16.4246 12.0098C15.8437 12.0044 15.2675 12.1149 14.7298 12.3346C14.192 12.5543 13.7034 12.8789 13.2924 13.2895C12.8814 13.7001 12.5563 14.1884 12.3361 14.726C12.1159 15.2636 12.0049 15.8396 12.0097 16.4205C12.0144 17.0014 12.1349 17.5756 12.3639 18.1094C12.5929 18.6433 12.926 19.1262 13.3437 19.53L28.8166 35L13.3466 50.47C12.9289 50.8738 12.5958 51.3567 12.3668 51.8906C12.1378 52.4245 12.0174 52.9986 12.0126 53.5795C12.0078 54.1604 12.1188 54.7365 12.339 55.274C12.5592 55.8116 12.8843 56.2999 13.2953 56.7105C13.7063 57.1211 14.1949 57.4457 14.7327 57.6654C15.2704 57.8852 15.8466 57.9956 16.4275 57.9903C17.0084 57.9849 17.5824 57.864 18.1161 57.6344C18.6498 57.4049 19.1324 57.0714 19.5357 56.6533L34.9999 41.1892Z" fill="black"/>
</svg>
